<?xml version="1.0" standalone="no"?>
<!DOCTYPE svg PUBLIC "-//W3C//DTD SVG 1.1//EN" "http://www.w3.org/Graphics/SVG/1.1/DTD/svg11.dtd">
<!--Generator: Xara Designer (www.xara.com), SVG filter version: 6.0.0.3-->
<svg stroke-width="0.501" stroke-linejoin="bevel" fill-rule="evenodd" xmlns:xlink="http://www.w3.org/1999/xlink" xmlns="http://www.w3.org/2000/svg" version="1.1" overflow="visible" width="150pt" height="150pt" viewBox="0 0 150 150">
 <defs>
	</defs>
 <g id="Document" fill="none" stroke="none" font-family="Times New Roman" font-size="16" transform="scale(1 -1)">
  <g id="Spread" transform="translate(0 -150)">
   <g id="Layer 1">
    <path d="M 41.165,137.032 C 75.406,155.708 118.355,143.076 137.032,108.835 C 155.708,74.594 143.076,31.645 108.835,12.968 C 74.594,-5.708 31.645,6.924 12.968,41.165 C -5.708,75.406 6.924,118.355 41.165,137.032 Z" fill="#ff0000" stroke="none" stroke-linecap="round" stroke-width="0.094" stroke-linejoin="miter" marker-start="none" marker-end="none" stroke-miterlimit="79.8403193612775"/>
    <path d="M 42.467,134.645 C 75.39,152.603 116.687,140.457 134.645,107.533 C 152.603,74.61 140.457,33.313 107.533,15.355 C 74.61,-2.603 33.313,9.543 15.355,42.467 C -2.603,75.39 9.543,116.687 42.467,134.645 Z" fill="#000000" stroke="none" stroke-linecap="round" stroke-width="0.091" stroke-linejoin="miter" marker-start="none" marker-end="none" stroke-miterlimit="79.8403193612775"/>
    <g id="Group" stroke-linejoin="miter" stroke-linecap="round" stroke="none" stroke-width="0.151" stroke-miterlimit="79.8403193612775">
     <path d="M 82.7,31.075 C 81.065,31.395 70.212,39.116 70.78,54.321 C 74.937,56.985 76.464,59.402 78.027,61.284 C 79.264,62.774 81.828,67.893 82.433,69.953 C 79.022,69.136 77.353,67.923 73.516,67.11 C 72.679,63.577 66.782,56.472 58.043,54.909 C 48.2,53.149 39.427,57.679 32.393,62.583 C 37.58,61.232 42.767,59.173 50.937,59.598 C 51.112,77.611 57.352,91.126 58.683,92.85 C 55.343,90.577 54.25,88.579 53.283,86.313 C 52.729,87.775 52.166,89.248 51.79,90.149 C 53.354,97.966 55.046,101.397 58.469,107.345 C 65.085,110.876 68.552,111.842 73.034,113.456 C 80.211,113.242 84.26,110.827 86.889,109.406 C 88.027,106.989 91.654,100.388 91.153,98.321 C 91.934,101.59 90.388,107.275 90.016,109.689 C 89.505,110.302 86.321,113.242 83.835,113.953 C 88.524,116.866 103.587,120.845 106.642,119.495 C 119.076,115.161 123.837,106.635 126.04,102.23 C 126.892,98.108 125.044,91.003 122.487,86.669 C 115.595,83.471 104.368,75.371 102.166,71.18 C 105.221,73.737 117.851,81.505 124.334,82.548 C 125.586,84.311 127.027,86.473 127.821,88.7 C 128.617,86.745 129.572,80.925 129.553,76.19 C 128.546,42.639 99.443,30.135 82.7,31.075 Z M 82.413,90.434 C 83.409,92.011 82.874,93.94 80.66,93.435 C 80.647,93.432 78.082,92.066 77.377,91.35 C 76.108,90.059 74.848,86.764 75.06,84.68 C 77.151,87.111 80.708,89.439 82.413,90.434 Z" fill="#fd0000" marker-start="none" marker-end="none"/>
     <path d="M 63.029,113.364 C 60.782,112.427 56.222,110.254 55.189,109.29 C 46.685,92.691 47.85,89.082 47.686,87.644 C 48.777,85.826 49.322,84.551 50.505,82.869 C 50.764,82.5 47.101,71.961 47.594,64.272 C 43.184,72.093 31.036,80.523 30.028,81.744 C 27.223,84.87 20.584,98.376 20.447,99.83 C 23.875,105.703 33.879,116.446 44.912,121.294 C 50.823,119.43 57.417,116.747 63.029,113.364 Z" fill="#ffffff" marker-start="none" marker-end="none"/>
     <path d="M 45.83,52.243 C 54.896,49.287 63.963,50.66 67.585,52.101 C 66.449,42.722 73.724,31.696 79.749,29.138 C 79.067,26.125 79.01,22.601 79.01,20.1 C 66.903,24.875 59.798,30.275 52.863,46.816 C 51.855,47.099 49.297,48.008 46.91,50.595 L 45.83,52.243 Z" fill="#ffffff" marker-start="none" marker-end="none"/>
    </g>
   </g>
  </g>
 </g>
</svg>
